# xmcd
#
# Track frame offsets: 
#        150
#        45525
#        115118
#        213191
#
# Disc length: 3470 seconds
#
# Revision: 0
# Processed by: cddbd v1.5.2PL0 Copyright (c) Steve Scherf et al.
# Submitted via: ExactAudioCopy v0.99pb5
#
DISCID=2c0d8c04
DTITLE=Pyramids With Nadja - Pyramids With Nadja
DYEAR=2009
DGENRE=
TTITLE0=Into the Silent Waves
TTITLE1=Another War
TTITLE2=Sound of Ice and Grass
TTITLE3=An Angel Was Heard to Cry Over the City of Rome
EXTD=
EXTT0=
EXTT1=
EXTT2=
EXTT3=
PLAYORDER=
